# xmcd
#
# Track frame offsets: 
#        150
#        11262
#        23222
#        35787
#        50000
#        58962
#        71397
#        87912
#        100710
#        115512
#        126462
#        144987
#        159577
#        173487
#
# Disc length: 2446 seconds
#
# Revision: 1
# Processed by: cddbd v1.5.2PL0 Copyright (c) Steve Scherf et al.
# Submitted via: ExactAudioCopyFreeDBPlugin 1.0
#
DISCID=b5098c0e
DTITLE=Fabulous Thunderbirds - Butt Rockin'
DYEAR=2000
DGENRE=Blues
TTITLE0=I Believe I'm In Love
TTITLE1=One's Too Many (And A Hundred Ain't Enough)
TTITLE2=Give Me All Your Lovin'
TTITLE3=Roll, Roll, Roll
TTITLE4=Cherry Pink And Apple Blossom White
TTITLE5=I Hear You Knockin'
TTITLE6=Tip On In
TTITLE7=I'm Sorry
TTITLE8=Mathilda
TTITLE9=Tell Me Why
TTITLE10=In Orbit
TTITLE11=Found A New Love
TTITLE12=I Got Eyes
TTITLE13=Someday You'll Want Me
EXTD=
EXTT0=
EXTT1=
EXTT2=
EXTT3=
EXTT4=
EXTT5=
EXTT6=
EXTT7=
EXTT8=
EXTT9=
EXTT10=
EXTT11=
EXTT12=
EXTT13=
PLAYORDER=
